:SAMPLES-PER-SECOND 30
:FULLY-SPECIFIED
:DEGREES
77
root  -2.78668 40.9269 -0.310359 175.407 -71.1397 -175.726
RightUpLeg  2.56746 0.220399 1.01592
RightLeg  -1.11058 -3.26739 0.672835
RightFoot  -0.243019 -0.261614 2.70659
RightToes  -3.13006e-008 1.75238e-005 3.56266e-009
Spine  -14.877 -4.00235 -3.21118
Spine1  21.3182 -5.27668 3.67356
HEad  -0.209731 -8.62098 -15.8996
LeftShoulder1  2.03903 -4.96921 -17.4301
LeftArm  -30.0006 -34.1789 -44.0726
LeftForeArm  88.818 -80.1485 -80.956
LeftHand  -0.548819 -4.73187 6.58602
RightShoulder  1.05075 1.81424 12.7883
RightArm  -45.2768 28.4878 18.6186
RightForeArm  76.4644 79.6079 77.5297
RightHand  -1.17451 8.25371 -10.3216
LeftUpLeg  7.41601 3.40844 4.81469
LeftLeg  -3.35231 28.7854 -1.89262
LeftFoot  -1.04395 0.543397 -5.98353
LeftToes  4.76866e-008 1.46233e-008 1.30548e-009
78
root  -2.81171 40.9296 -0.272607 175.245 -71.6591 -175.582
RightUpLeg  2.75212 0.0658637 0.901865
RightLeg  -1.29797 -3.62444 0.785045
RightFoot  -0.236248 -0.263431 2.7057
RightToes  -3.13006e-008 1.75238e-005 3.56266e-009
Spine  -14.7384 -4.06544 -3.66392
Spine1  21.2554 -5.51835 4.3345
HEad  -0.598597 -8.72976 -15.6525
LeftShoulder1  1.97816 -4.64612 -17.6499
LeftArm  -28.9601 -33.6568 -44.7186
LeftForeArm  89.7113 -80.1762 -81.6555
LeftHand  -0.571627 -4.75293 6.83685
RightShoulder  0.997722 1.54763 12.7845
RightArm  -44.7562 28.3049 19.1176
RightForeArm  75.4011 79.5472 78.6942
RightHand  -1.18882 8.10654 -10.5454
LeftUpLeg  7.46456 3.32235 4.75023
LeftLeg  -3.55929 28.346 -1.91986
LeftFoot  -0.957302 0.531604 -5.78499
LeftToes  4.76866e-008 1.46233e-008 1.30548e-009
79
root  -2.84083 40.9347 -0.237222 175.272 -72.0097 -175.662
RightUpLeg  2.90772 -0.0537472 0.764587
RightLeg  -1.39428 -3.84758 0.814209
RightFoot  -0.19829 -0.267144 2.72712
RightToes  -3.13006e-008 1.75238e-005 3.56266e-009
Spine  -14.5977 -4.00968 -3.77188
Spine1  21.0552 -5.49055 4.49013
HEad  -0.652572 -9.0692 -15.2662
LeftShoulder1  2.01981 -4.79031 -17.7385
LeftArm  -28.1674 -32.6545 -45.158
LeftForeArm  91.3648 -80.2115 -83.321
LeftHand  -0.527505 -4.92977 6.22847
RightShoulder  0.978934 1.42634 12.9023
RightArm  -43.7257 28.5155 20.1536
RightForeArm  73.4035 79.4618 77.6127
RightHand  -1.36009 8.40167 -11.7586
LeftUpLeg  7.63323 3.2951 4.68348
LeftLeg  -3.89334 27.9946 -2.11436
LeftFoot  -0.814883 0.530248 -5.70109
LeftToes  4.76866e-008 1.46233e-008 1.30548e-009
80
root  -2.84656 40.9423 -0.209513 175.378 -72.1114 -175.657
RightUpLeg  2.79089 -0.0591679 0.71024
RightLeg  -1.41433 -3.94056 0.820667
RightFoot  -0.136098 -0.274303 2.78584
RightToes  -3.13006e-008 1.75238e-005 3.56266e-009
Spine  -14.3838 -3.95094 -3.9264
Spine1  20.3783 -5.49812 4.82955
HEad  -0.352218 -9.3153 -14.9834
LeftShoulder1  1.98089 -4.63984 -17.7088
LeftArm  -26.7818 -31.2079 -46.3099
LeftForeArm  95.4274 -80.2373 -88.2571
LeftHand  -0.539421 -4.32543 6.74357
RightShoulder  1.00532 1.50468 13.1424
RightArm  -41.4915 30.2159 21.9366
RightForeArm  69.9393 79.3002 73.5851
RightHand  -1.45307 8.44285 -12.4988
LeftUpLeg  7.54666 3.28724 4.66483
LeftLeg  -4.01119 27.8555 -2.19619
LeftFoot  -0.752158 0.545596 -5.8376
LeftToes  4.76866e-008 1.46233e-008 1.30548e-009
81
root  -2.83806 40.9537 -0.179405 175.874 -71.6926 -175.762
RightUpLeg  2.24045 0.0555344 0.670408
RightLeg  -1.34292 -3.62097 0.76964
RightFoot  0.0697277 -0.291915 2.9242
RightToes  -3.13006e-008 1.75238e-005 3.56266e-009
Spine  -14.0343 -3.51924 -3.79899
Spine1  18.8311 -5.08117 5.11913
HEad  0.321916 -10.4268 -14.8062
LeftShoulder1  1.97222 -4.5193 -17.984
LeftArm  -24.0041 -29.0901 -48.1467
LeftForeArm  101.269 -80.1543 -95.0222
LeftHand  -0.619049 -3.51194 8.31303
RightShoulder  1.10467 1.88893 13.5822
RightArm  -37.2437 32.8696 24.8007
RightForeArm  69.1182 79.2198 70.1144
RightHand  -1.33383 7.76501 -12.0758
LeftUpLeg  7.29031 3.30099 4.63933
LeftLeg  -4.32433 28.1909 -2.46448
LeftFoot  -0.496424 0.551024 -5.77115
LeftToes  4.76866e-008 1.46233e-008 1.30548e-009
82
root  -2.80521 40.9716 -0.158522 176.591 -70.8653 -175.939
RightUpLeg  1.53987 0.290453 0.683445
RightLeg  -1.4537 -3.0474 0.680012
RightFoot  0.413293 -0.31668 3.10297
RightToes  -3.13006e-008 1.75238e-005 3.56266e-009
Spine  -13.871 -2.82378 -2.92582
Spine1  17.6179 -4.16835 4.38266
HEad  0.541499 -12.0403 -13.8936
LeftShoulder1  1.91501 -4.3312 -17.8325
LeftArm  -20.7671 -26.133 -49.9061
LeftForeArm  113.045 -79.5561 -108.828
LeftHand  -0.661755 -3.64662 8.75609
RightShoulder  1.28031 2.5625 14.2763
RightArm  -31.0664 35.7269 28.2405
RightForeArm  68.5992 79.1833 69.5884
RightHand  -1.33002 8.29001 -11.5987
LeftUpLeg  6.785 3.31549 4.63135
LeftLeg  -4.34741 28.8339 -2.59739
LeftFoot  -0.34129 0.589223 -6.09578
LeftToes  4.76866e-008 1.46233e-008 1.30548e-009
83
root  -2.76451 40.9857 -0.146274 177.405 -69.9509 -176.256
RightUpLeg  0.996893 0.272989 0.573875
RightLeg  -1.81237 -2.14937 0.772843
RightFoot  0.789625 -0.319532 3.05582
RightToes  -3.13006e-008 1.75238e-005 3.56266e-009
Spine  -13.3103 -1.60373 -2.18455
Spine1  16.2032 -2.85599 4.19084
HEad  0.0901464 -13.9534 -12.4279
LeftShoulder1  2.00382 -4.44961 -18.6545
LeftArm  -16.6517 -22.7233 -51.1332
LeftForeArm  125.599 -78.3579 -121.971
LeftHand  -0.68599 -3.8336 8.88844
RightShoulder  1.39446 3.06516 14.4125
RightArm  -23.2253 37.6349 31.1024
RightForeArm  69.7962 79.2783 71.8525
RightHand  -1.24143 8.17948 -10.9387
LeftUpLeg  6.37493 3.27659 4.54576
LeftLeg  -4.52707 29.6114 -2.81054
LeftFoot  -0.207781 0.616321 -6.30868
LeftToes  4.76866e-008 1.46233e-008 1.30548e-009
84
root  -2.69606 40.9897 -0.147279 178.424 -69.0313 -176.896
RightUpLeg  0.406039 0.283452 0.418477
RightLeg  -1.90111 -1.22973 0.717471
RightFoot  0.988759 -0.32772 3.09512
RightToes  -3.13006e-008 1.75238e-005 3.56266e-009
Spine  -13.0962 -0.066512 -1.77001
Spine1  15.7316 -1.28466 4.30673
HEad  -1.64304 -16.4485 -10.7979
LeftShoulder1  2.12412 -4.58142 -19.7911
LeftArm  -12.3814 -19.5849 -51.9671
LeftForeArm  135.014 -76.8379 -131.615
LeftHand  -0.66634 -4.00255 8.54739
RightShoulder  1.51788 3.76631 14.0115
RightArm  -15.7307 39.1958 33.3485
RightForeArm  70.4047 79.3063 71.7981
RightHand  -1.11018 8.2293 -9.80553
LeftUpLeg  6.11279 3.13112 4.29893
LeftLeg  -4.89017 30.6534 -3.10112
LeftFoot  -0.0261876 0.613329 -6.18721
LeftToes  4.76866e-008 1.46233e-008 1.30548e-009
85
root  -2.59536 40.984 -0.154976 178.796 -68.6841 -177.02
RightUpLeg  0.000147501 0.299523 0.395552
RightLeg  -2.00977 -0.731881 0.762094
RightFoot  1.13806 -0.329947 3.08639
RightToes  -3.13006e-008 1.75238e-005 3.56266e-009
Spine  -12.8499 1.47224 -0.734452
Spine1  16.0248 0.473235 3.44237
HEad  -4.9052 -20.2991 -8.27262
LeftShoulder1  2.46058 -5.41941 -21.2041
LeftArm  -8.79812 -16.2924 -51.4672
LeftForeArm  143.748 -75.3506 -138.488
LeftHand  -0.587017 -5.32726 6.64388
RightShoulder  1.5563 4.04282 13.732
RightArm  -9.48656 40.7291 34.8849
RightForeArm  70.3944 79.2767 69.7953
RightHand  -0.883162 8.7297 -7.60582
LeftUpLeg  5.63348 3.09903 4.25
LeftLeg  -4.71257 31.2567 -3.07611
LeftFoot  -0.0870171 0.599727 -6.07853
LeftToes  4.76866e-008 1.46233e-008 1.30548e-009
86
root  -2.49736 40.9782 -0.169873 178.309 -69.1595 -176.412
RightUpLeg  -0.0320634 0.290351 0.558077
RightLeg  -2.35093 -1.09676 0.993641
RightFoot  1.34756 -0.34979 3.22764
RightToes  -3.13006e-008 1.75238e-005 3.56266e-009
Spine  -11.6767 2.77652 0.494516
Spine1  15.4394 2.03093 2.39895
HEad  -8.61987 -23.6436 -5.09031
LeftShoulder1  2.67001 -5.86938 -22.1811
LeftArm  -5.08265 -12.5501 -51.2673
LeftForeArm  149.923 -73.8389 -143.56
LeftHand  -0.540848 -5.45794 6.11283
RightShoulder  1.58429 4.28416 13.417
RightArm  -5.20566 41.0179 35.0956
RightForeArm  70.3166 79.2616 69.3082
RightHand  -0.677584 8.52717 -6.02213
LeftUpLeg  5.03757 3.27804 4.56146
LeftLeg  -4.07448 30.8642 -2.79593
LeftFoot  -0.278016 0.567255 -5.83864
LeftToes  4.76866e-008 1.46233e-008 1.30548e-009
87
root  -2.3938 40.9772 -0.218743 178.403 -70.3045 -176.328
RightUpLeg  -0.218561 0.190934 0.561928
RightLeg  -2.46523 -2.13522 1.20295
RightFoot  1.43151 -0.325966 2.99794
RightToes  -3.13006e-008 1.75238e-005 3.56266e-009
Spine  -11.2096 3.45792 0.369855
Spine1  15.736 2.78152 2.40463
HEad  -13.0884 -26.2843 -2.24211
LeftShoulder1  2.65612 -5.71389 -22.5235
LeftArm  -1.5489 -8.45479 -51.4278
LeftForeArm  153.903 -72.7481 -146.532
LeftHand  -0.50926 -6.23027 5.41251
RightShoulder  1.50824 3.96011 13.2726
RightArm  -2.44822 41.6217 35.6328
RightForeArm  68.1619 79.0928 66.7693
RightHand  -0.706698 8.60894 -6.21496
LeftUpLeg  4.27707 3.25398 4.68547
LeftLeg  -3.4677 29.8068 -2.42056
LeftFoot  -0.276356 0.565862 -5.82346
LeftToes  4.76866e-008 1.46233e-008 1.30548e-009
88
root  -2.30674 40.983 -0.280687 178.561 -71.9319 -176.251
RightUpLeg  -0.534028 0.179359 0.571148
RightLeg  -2.27728 -3.5693 1.28722
RightFoot  1.3879 -0.324992 2.99692
RightToes  -3.13006e-008 1.75238e-005 3.56266e-009
Spine  -10.7784 3.60143 -0.312012
Spine1  15.542 2.92302 2.80191
HEad  -17.0524 -28.1022 0.766984
LeftShoulder1  2.69965 -5.7824 -22.7954
LeftArm  1.1258 -3.10724 -51.2023
LeftForeArm  155.233 -71.8044 -148.499
LeftHand  -0.560005 -5.81042 6.12966
RightShoulder  1.55208 4.06788 13.5897
RightArm  -1.70661 40.6213 34.8475
RightForeArm  69.2324 79.1806 68.0377
RightHand  -0.866547 8.82013 -7.44156
LeftUpLeg  3.57113 3.16998 4.79953
LeftLeg  -3.27403 28.3344 -2.24687
LeftFoot  -0.0935214 0.565227 -5.73244
LeftToes  4.76866e-008 1.46233e-008 1.30548e-009
